/* XPM */
static const char *collectible_blork[] = {
/* columns rows colors chars-per-pixel */
"55 64 246 2 ",
"   c #151713",
".  c #0E0C0F",
"X  c #1D371D",
"o  c #25321A",
"O  c #363B29",
"+  c #2E362A",
"@  c #1D3721",
"#  c #2B421D",
"$  c #194220",
"%  c #2B4C24",
"&  c #2A4425",
"*  c #354B25",
"=  c #2A5929",
"-  c #3B542A",
";  c #375829",
":  c #3D5133",
">  c #3C4239",
",  c #3A642E",
"<  c #3B6C32",
"1  c #376732",
"2  c #366C31",
"3  c #1F411E",
"4  c #445D2C",
"5  c #45562A",
"6  c #525D28",
"7  c #464C38",
"8  c #465834",
"9  c #4F5339",
"0  c #44632D",
"q  c #4A632D",
"w  c #496B2F",
"e  c #54672E",
"r  c #456231",
"t  c #446D32",
"y  c #4B6C32",
"u  c #4A653A",
"i  c #536532",
"p  c #546C33",
"a  c #586A37",
"s  c #447334",
"d  c #4C7435",
"f  c #4C7D39",
"g  c #4A7937",
"h  c #547234",
"j  c #5B7639",
"k  c #557C3B",
"l  c #5B7C3A",
"z  c #577736",
"x  c #5D702F",
"c  c #646A38",
"v  c #657938",
"b  c #757A3A",
"n  c #616C2D",
"m  c #464D43",
"M  c #53584B",
"N  c #5C5E56",
"B  c #4D5447",
"V  c #596549",
"C  c #597545",
"Z  c #5A6655",
"A  c #4B6D45",
"S  c #67674B",
"D  c #687847",
"F  c #646A54",
"G  c #6A7557",
"H  c #757B57",
"J  c #6C6C66",
"K  c #736C6C",
"L  c #767869",
"P  c #7A7975",
"I  c #6E736A",
"U  c #625D5D",
"Y  c #847D79",
"T  c #807A4B",
"R  c #4C853C",
"E  c #54833B",
"W  c #5B843D",
"Q  c #5D883E",
"!  c #58873B",
"~  c #63833B",
"^  c #67883C",
"/  c #738B3B",
"(  c #748836",
")  c #79943D",
"_  c #568B41",
"`  c #5B8D41",
"'  c #5B8541",
"]  c #5B9545",
"[  c #4E8840",
"{  c #648C42",
"}  c #6B8C42",
"|  c #698748",
" . c #768A47",
".. c #659344",
"X. c #6D9244",
"o. c #659C48",
"O. c #6B9D49",
"+. c #679A46",
"@. c #739445",
"#. c #7C9B45",
"$. c #779947",
"%. c #778859",
"&. c #78935B",
"*. c #6BA14B",
"=. c #67A64E",
"-. c #72A44C",
";. c #7CA44B",
":. c #74A94D",
">. c #7BA949",
",. c #77B24F",
"<. c #7BAC52",
"1. c #75A951",
"2. c #7BB554",
"3. c #6CAF51",
"4. c #778667",
"5. c #7C8973",
"6. c #869A3B",
"7. c #95A83E",
"8. c #A2AE3D",
"9. c #839C43",
"0. c #899B45",
"q. c #889A59",
"w. c #8B8E50",
"e. c #A79B50",
"r. c #83A345",
"t. c #8AA344",
"y. c #82A44B",
"u. c #8BAD4C",
"i. c #87A94A",
"p. c #96AA47",
"a. c #89B44C",
"s. c #9BB649",
"d. c #83AB52",
"f. c #8BAC52",
"g. c #88A456",
"h. c #96A856",
"j. c #83B453",
"k. c #8BB354",
"l. c #85BB52",
"z. c #8BBB55",
"x. c #8CBE5A",
"c. c #89B659",
"v. c #93B354",
"b. c #93BB54",
"n. c #9BBB55",
"m. c #94BB5A",
"M. c #98B659",
"N. c #A9BC4A",
"B. c #A5B956",
"V. c #BBB656",
"C. c #B1B051",
"Z. c #828968",
"A. c #8A9763",
"S. c #858979",
"D. c #979C76",
"F. c #91956D",
"G. c #97A965",
"H. c #9CB368",
"J. c #97A478",
"K. c #8DA869",
"L. c #A6B273",
"P. c #C6BC5C",
"I. c #CABB66",
"U. c #8DC156",
"Y. c #9BC354",
"T. c #95C25B",
"R. c #9CC45B",
"E. c #98C458",
"W. c #AAC24B",
"Q. c #B5C74C",
"!. c #A2C554",
"~. c #A4C955",
"^. c #ABCC56",
"/. c #A2C45C",
"(. c #A4CA5A",
"). c #ABCD5B",
"_. c #AAC553",
"`. c #B3CD54",
"'. c #B1CE5B",
"]. c #BDD354",
"[. c #B4D15C",
"{. c #BBD45C",
"}. c #B5D055",
"|. c #BAD24C",
" X c #9BC561",
".X c #A4CA62",
"XX c #ABCD63",
"oX c #A8C564",
"OX c #B4CB67",
"+X c #AFD065",
"@X c #B4D162",
"#X c #BAD561",
"$X c #B5C275",
"%X c #CADA4E",
"&X c #C2D654",
"*X c #C3D659",
"=X c #C7DA55",
"-X c #D8C668",
";X c #D3CC78",
":X c #EDD66C",
">X c #FEE474",
",X c #FCE378",
"<X c #FBE26F",
"1X c #807B80",
"2X c #8A8386",
"3X c #888785",
"4X c #938B8E",
"5X c #958C92",
"6X c #999596",
"7X c #929787",
"8X c #9EA28A",
"9X c #B0B18F",
"0X c #A39CA2",
"qX c #ABA7A7",
"wX c #B8B9AD",
"eX c #B3AAB3",
"rX c #B7B2B6",
"tX c #AFB0A8",
"yX c #9E99A0",
"uX c #D5CF92",
"iX c #FCE886",
"pX c #FDED9A",
"aX c #FFF09D",
"sX c #CCCAAC",
"dX c #FEF1A5",
"fX c #FDF4B4",
"gX c #FDF5BA",
"hX c #F7ECA7",
"jX c #E0DDB7",
"kX c #C3BDC1",
"lX c #CBC8C8",
"zX c #D1CBD1",
"xX c #DAD6D9",
"cX c #E0D9DE",
"vX c #FEF8C6",
"bX c #FDFAD6",
"nX c #EAE7CD",
"mX c #E2DDE1",
"MX c #E9E5E9",
"NX c #FEFDEA",
"BX c #F9F8E5",
"VX c #FEFDF4",
"CX c #F9F7F7",
"ZX c #F2EEF2",
"AX c #DEE0D9",
"SX c #4E4446",
/* pixels */
"SXSXSXSXSXSXSXSXSXSXSXSXSXSX3XY SXSXSXSXSXSXSXSXSXSXSXSXSXSXSXSXSXSXSXSXSXSXSXSXSXSXSXSXSXSXSXSXSXSXSXSXSXSXSX",
"SXSXSXSXSXSXP F %.SXSXSXSX$Xq.V SXSXSXSXSXSXSXSXSXSXSXSXSXSXSXSXSXSXSXSXSXSXSXSXSXSXSXSXSXSXSXSXSXSXSXSXSXSXSX",
"SXSXSXSXSXSXF y.j.C SXSXG.[.m.j F SXSXSXSXSXSXSXSXSXSXSXSXSXSXSXSXSXSXSXSXSXSXSXSXSXSXSXSXSXSXSXSXSXSXSXSXSXSX",
"SXSXSXSXSXSXq.[.x.' 3XSXq.).<.8 4XSXSXSXSXSXSXSXSXSXSXSXSXSXSXSXSXSXSXSXSXSXSXSXSXSXSXSXSXSXSXSXSXSXSXSXSXSXSX",
"SXSXSXSXSXSX%._.R...J SXq.R...J SXSXSXSXSXSXSXSXSXSXSXSXSXSXSXSXSXSXSXSXSXSXSXSXSXSXSXSXSXSXSXSXSXSXSXSXSXSXSX",
"SXSXSXSXSXSX0XH /.d.G SXG.T.C qXSXSXSXSXSXSXSXSXSXSXSXSXSXSXSXSXSXSXSXSXSXSXSXSXSXSXSXSXSXSXSXSXSXSXSXSXSXSXSX",
"SXSXSXSXSXSXSX6Xq.y.a 5.g.c.F xXSXSXSXSXSXSXSXSXSXSXSXSXSXSXSXSXSXSXSXSXSXSXSXSXSXSXSXSXSXSXSXSXSXSXSXSXSXSXSX",
"SXSXSX$X*XB.4.J.g.f.M././.;.P SXSXSXSXSXSXSXSXSXSXSXSXSXSXSXSXSXSXSXSXSXSXSXSXSXSXSXSXSXSXSXSXSXSXSXSXSXSXSXSX",
"SXSXSXoX#X#X/.oXXXB.s.p.r.^ 3XSXSXSXSXSXSXSXSXSXSXSXSXSXSXSXSXSXSXSXSXSXSXSXSXSXSXSXSXSXSXSXSXSXSXSXSXSXSXSXSX",
"SXSXSX%.v.g.q.M.s.( ~ #.0.c 4XSXSXSXSXSXSXSXSXSXSXSXSXSXSXSXSXSXSXSXSXSXSXSXSXSXSXSXSXSXSXSXSXSXSXSXSXSXSXSXSX",
"SXSXSXrX3X6XeXS.M.Q.) #.$.a 0XSXSXSXSXSXSXSXSXSXSXSXSXSXSXSXSXSXSXSXSXSXSXSXSXSXSXSXSXSXSXSXSXSXSXSXSXSXSXSXSX",
"SXSXSXSXSXSXSXSXA.^.{.[..X .3XSXSXSXSXSXSXSXSXSXSXSXSXSXSXSXSXSXSXSXSXSXSXSXSXSXSXSXSXSXSXSXSXSXSXSXSXSXSXSXSX",
"SXSXSXSXSXSXSXSXSXf.#.t.`.m.| I SXSXSXSXSXSXSXSXSXSXSXSXSXSXSXSXSXSXSXSXSXSXSXSXSXSXSXSXSXSXSXSXSXSXSXSXSXSXSX",
"SXSXSXSXSXSXSXSXq.D 4XS.N.).1.u SXSXSXSXSXSXSXSXSXSXSXSXSXSXSXSXSXSXSXSXSXSXSXSXSXSXSXSXSXSXSXSXSXSXSXSXSXSXSX",
"SXSXSXSXSXSXSXJ.D 4XSX8XW.(.1., 2XSXSXSXmXxXSXSXSXSXSXSXSXSXSXSXAXmXSXSXSXSXSXSXSXSXSXSXSXSXSXSXSXSXSXSXSXSXSX",
"SXSXSXSXSXSXSX%.Y SXSXS.p.n.} V eXSXSXmXcXcXMXSXSXSXSX$XoXoXoXM.H.K.K.J.SXSXSXSXSXSXSXSXSXSXSXSXSXSXSXSXSXSXSX",
"SXSXSXSXSXSXH.G SXSXSXrXL a 7 qXSXSXSXMXmXxX6X7XSXw.0.p.p.) / 6.Y.u.^ j | L xXSXSXSXSXSXSXSXSXSXSXSXSXSXSXSXSX",
"SXSXSXSXSXG.n.F SXSXSXSXSX5X4XSXSXSXwX9XJ.h.b 0.N.N.8.6.6 * x 6.s.t.#.q +.{ F 3XSXSXSXSXSXSXSXSXSXSXSXSXSXSXSX",
"SXSXSXSXSXF.M. .Y SXSXSXSXSXSXSXSXL.p.Q.|.N.&X=X%X%X%X%X&XW.p.p.[.).d.l h ' O.u %.4.SXSXSXSXSXSXSXSXSXSXSXSXSX",
"SXSXSXSXSXSXqXq.D Y SXSXSXSXSX;X*X%X%X%X%X=X*X*X*X&X*X*X&X*X*X*X#X@XoXn.9.* { X.^ t Z SXSXSXSXSXSXSXSXSXSXSXSX",
"SXSXSXSXSXSXSXqX .a N SXSXSX#X&X%X%X%XW.p.0.p.N.{.{.{.{.{.{.].].*X#XB.v i r O.1.y % m SXSXSXSXSXSXSXSXSXSXSXSX",
"SXSXSXSXSXSXSXSXtXD o O L.#X&X=X=XQ.h.9XuXuX;XV.C.`.@X@X@X{.&X7.( 0.B./ y d. Xx.{ s , S.SXSXSXSXSXSXSXSXSXSXSX",
"SXSXSXSXSXSXSXSXSX6X  5 )._.p.p.s.L.nXbXbXbXfXpX,XP. ./.XX@X&X6.a | B.v.m.XX.X X<.Q k : 6XSXSXSXSXSXSXSXSXSXSX",
"SXSXSXSXSXSXSXSXSXSX4.n.h.J.wX8XD.bXNXVXVXNXbXdXiX:Xc p T.XXt.v n.XXXX@X+X+XXXXXu.h * y M SXSXSXSXSXSXSXSXSXSX",
"SXSXSXSXSXSXSXSXSXSXoXh.wXBXVXlXnXNXVXVXVXVXbXfXiX>XV.* } T.j q m..X+X@X@X@X@X@X!.u.l d r &.G.H.L.G.A.Z.Z.SXSX",
"SXSXSXSXSXSXSXSXSXL.M.9XBXVXCXtXBXNXVXVXZXtXsXgXpX,X:X5 - <.i O k..XXX@X@X@X#X[.y.l y ; % * a v x x s.W. .5XSX",
"SXSXSXSXSXSXSXSXSXH.g.jXNXVXZXwXBXNXVXVXxXP 9XgXpX,X:Xi * O.4 o ;. XXX@X@X@X#X].) - = = = & 1XyXM h X.8 N kXSX",
"SXSXSXSXSXSXSXSXSXA.q.gXBXVXMXtXvXbXNXNXBXsXhXfXpX>X-X- ; O.4   $.T..X@X@X@X@X@Xk...[ f 2 = m 7X| i N 0XMXSXSX",
"SXSXSXSXSXSXSXSXSX%.w.dXvXbXnXL.fXvXvXbXvXgXfXdXiX>Xe.% y ;.4   X.T.oXXX@X@X@Xy.m.T.1._ t ; * p V 6XmXSXSXSXSX",
"SXSXSXSXSX9XSXSXSX%.0.iXaXfXfXF.uXdXfXgXfXfXdXiX>XP.4 t @.{ o . } T.oXXX@X@X@XM.R.R.2.` q 4 5 7 eXSXSXSXSXSXSX",
"SXSXSXSXSXQ.Q.w.K G v -XiXpXpXS T iXaXdXdXpXiX:Xe.e k l 4   . . }  XoXXX@X@X@X/.(.R.d.j / ;.* : G SXSXSXSXSXSX",
"SXSXSXSXSXB.].0.v i l D :XiXiX-Xe.e.I.;X;XI.e.b h 4 7 D.O . L G 9..XXXXX@X[.[.).XXoX#.9.n.$.;.@.;.D SXSXSXSXSX",
"SXSXSXSXSXB.`.5 c i <.y c I.>X>X<XP.c i x p j ~ p     B + . L F.m.R./.XX@X[.[.@XXX(.( W.M.v / x y.X.J SXSXSXSX",
"SXSXSXSXSXq.`.b 6 o } C z 6 b w.b e h h h x ) 7.W.n   . .   5 f.m.y.v.oX).[.[.[.).n.( ^. .F  .Y.m.{ > SXSXSXSX",
"SXSXSXSXSXS.h.`.`.6.c a h } ~ j 5 9 v ( N.( ].{.{.'.t./ / #.m.T.} $.k.R.).[.[.}.).M.6.^. .9 v ;.O.4 - 9 SXSXSX",
"SXSXSXSXSXSXH r.!.'.`.Q.s.( v ( 9.9.`.0.`.( s.[.XXXXXXXX.X Xc.h l 1.j.T.(.'.[.}.).v.6.!.^ q * ; ; + W r P SXSX",
"SXSXSXSXSXSXrXV l #.v./.'.[.].%X*X{.{./.+XM./ n./.v.f.v v p - 4 ..1.j.T.(.'.}.}.'.v.t.#.#.u.r & z - y , 2XSXSX",
"SXSXSXSXSXSXSXzXP : 4 v f.oX@X{.{.@X@X+XXXoXv.f.v.$.;.y r 0 y W o.1.z.E.(.`.}.}.).n.6.v r.>.d ; ' 4 * V kXSXSX",
"SXSXSXSXSXSXSXSXSXI - { M.oX+X@X@XXXXXXX.XR.m.m.k.c.<...! _ ` o.1.2.x.R.^.}.}.`.^.k.e } O.O.t - z 8 K kXSXSXSX",
"SXSXSXSXSXSXSXSXSXSX8 q X.d.m.k. X.X Xc.b.j.d.<.{ W o.] o.o.*.:.2.x.E.(.^.}.`.^.(.k.r r k g % o * P SXSXSXSXSX",
"SXSXSXSXSXSXSXSXSX&.- 0 - - h j 4 h @.k +.E _ f ; d _ +.*.:.,.j.x.T.(.~.`.`.`.~.R.U.:.; X X $ $ @ K SXSXSXSXSX",
"SXSXSXSXSXSXSXH. Xz.k d Q k k l h y W _ E R R [ _ ] O.-.>.j.z.z.k.k.n.^.^.^.^.~.E.z.<.` g < 2 2 3 > SXSXSXSXSX",
"SXSXSXSXSXJ.9._.R.x.2.*.O...' W E E _ ` ] ] ] ] =.=.3.,.l.U.T.#.7.p.v u.^.^.s./ u.z.W 0 ; s g < 3 & 5XSXSXSXSX",
"SXSXSXSXSXF.W.}.R.<.1.2.2.<.1.O.O.O.*.*.+.E _ 3.3.,.2.l.j.@.~ ( |.N./ h Y.~.t.b p ~ ~ r.W ; s < 3 : qXSXSXSXSX",
"SXSXSXSXSXG.].'.i./ p j.T.x.$.l { <.c.,.-.r.d o.2.l.l.U.X./ z p a.$.~ q b.~.) e h 4 a.>.E , < < O 4XSXSXSXSXSX",
"SXSXSXSXSXh.&X_.t.u.h ;. X;.9.N.u./ x.x.d.#.w k U.E.Y.E.u.>.{ @.) 4 q / !.~.Y.;.q z Q ! 1 = < < 4XZXSXSXSXSXSX",
"SXSXSXSXSXq.|.^.u.h h b.y.i t.!.y.p d.R.z.X.w >.Y.~.~.~.(.T.b.b.;.q l Y.~.~.Y.$.z ^ d < ; = 2 A zXSXSXSXSXSXSX",
"SXSXSXSXSXZ.W.!.E.z.T.k.9.$.z } h 5 u.(.(.Y.Y.~.^.~.^.(.(.(./.Y.^ ~ a.~.~.Y.l.:.o.R ! R s 2 2 L ZXSXSXSXSXSXSX",
"SXSXSXSXSXS.r.b.z.x.U.T.b.d.y.j h X.R.~.~.~.^.^.^.^.~.).Y.v.(./.R.Y.~.~.Y.a.:...` ! R f < 2 1 eXSXSXSXSXSXSXSX",
"SXSXSXSXSXeXD >.>.2.j.z.x.T.T.b.E.E.(.~.~.~.^.~.~.~.(.(.y.p /././.!.~.E.l.:.+.^ E f f < % 1 Z xXSXSXSXSXSXSXSX",
"SXSXSXSXSXSX3XW O.O.-.<.j.z.x.T.E.E.u.r.u.n.~.~.(.(.(.b.R.n.R.Y.n.Y.E.b.2.O.d * * & ; < < , 6XSXSXSXSXSXSXSXSX",
"SXSXSXSXSXSXxX5.l Q ^ ..O.-.<.j.z.>./ s.a.^ z.E.E.R.R.R.T.b.v.v.v.y.j.l.:...W q d , % g < Z mXSXSXSXSXSXSXSXSX",
"SXSXSXSXSXSXSXxX3Xu t d f E ] o.:.W r.a.>.z -.l.z.k.k.j.y.;.y.;.;.h <.,.+.W k d , % < t + eXSXSXSXSXSXSXSXSXSX",
"SXSXSXSXSXSXSXSXSXlXI & % ; s R _ _ E d y ; ] :.-.O.X...{ { { { Q - ^ *.E d y t s t * o M xXSXSXSXSXSXSXSXSXSX",
"SXSXSXSXSXSXSXSXSXSXMXP & & M u s R f % & s ` ` ! E k d k d s s g # Q Q 0 t d w 8 m > N qXSXSXSXSXSXSXSXSXSXSX",
"SXSXSXSXSXSXSXSXSXSXSXZXkXkXMXlX6XI C g s g E E R f g g f d s s g q } q % r V P rXmXMXMXSXSXSXSXSXSXSXSXSXSXSX",
"SXSXSXSXSXSXSXSXSXSXSXSXSXSXSXSXCXMXzXqX6X3XS.5.5.4.4.Z # * A C G v ~ 7 K 6XzXCXSXSXSXSXSXSXSXSXSXSXSXSXSXSXSX",
"SXSXSXSXSXSXSXSXSXSXSXSXSXSXSXSXSXSXSXSXSXSXSXSXSXSXSXeXo P rXSXtXy.D rXSXSXSXSXSXSXSXSXSXSXSXSXSXSXSXSXSXSXSX",
"SXSXSXSXSXSXSXSXSXSXSXSXSXSXSXSXSXSXSXSXSXSXSXSXSXSXSX5.8 6XSXSXq.r.Z.SXSXSXSXSXSXSXSXSXSXSXSXSXSXSXSXSXSXSXSX",
"SXSXSXSXSXSXSXSXSXSXSXSXSXSXSXSXSXSXSXSXD.A.SXSXSXSXSX9 q 7 SXSXH 6.G SXSXSXSXSXSXSXSXSXSXSXSXSXSXSXSXSXSXSXSX",
"SXSXSXSXSXSXSXSXSXSXSXSXSXSXSXSXJ.D v 9.9.v 8 V %.q.v.u.t.~ u V V 6 x %.D.SXSXSXSXSXSXSXSXSXSXSXSXSXSXSXSXSXSX",
"SXSXSXSXSXSXSXSXSXSXSXSXSXSXS.q.i z h z i @.p i ^ @.d.y.#.;.$.~ } @.} @.{ C V SXSXSXSXSXSXSXSXSXSXSXSXSXSXSXSX",
"SXSXSXSXSXSXSXSXSXSXSXSXSXqXU H S r 5 9 7 D S i @.} ^ j h h d k k k d - * r 4 B 2X2X1X4X6XSXSXSXSXSXSXSXSXSXSX",
"SXSXSXSXSXSXSXSXSXSXSXSX6XSXSXSX2XP 2X6XP K Y M V F L P S.P P J J K P 2X2XK K 2XSXSXSXSXSXSXSXSXSXSXSXSXSXSXSX"
};
