/* XPM */
static const char *exit[] = {
/* columns rows colors chars-per-pixel */
"64 54 248 2 ",
"   c #0E0400",
".  c #0F0800",
"X  c #130400",
"o  c #1A0601",
"O  c #130A02",
"+  c #1B0C01",
"@  c #1E0E0A",
"#  c #1C1405",
"$  c #240B01",
"%  c #231304",
"&  c #231B01",
"*  c #2C1C04",
"=  c #23140B",
"-  c #251A0B",
";  c #2B1A0A",
":  c #2C1303",
">  c #371A05",
",  c #2D1C12",
"<  c #301E14",
"1  c #2A2205",
"2  c #372706",
"3  c #393105",
"4  c #342716",
"5  c #362B13",
"6  c #411E06",
"7  c #462709",
"8  c #522E0A",
"9  c #463608",
"0  c #563708",
"q  c #462C16",
"w  c #41331C",
"e  c #473919",
"r  c #563917",
"t  c #502E15",
"y  c #623D17",
"u  c #4A3B26",
"i  c #4F3625",
"p  c #603F20",
"a  c #594608",
"s  c #4C431B",
"d  c #564817",
"f  c #54470E",
"g  c #654906",
"h  c #685209",
"j  c #664A18",
"k  c #6A5519",
"l  c #755B1B",
"z  c #7A611C",
"x  c #7E7512",
"c  c #4D4427",
"v  c #574829",
"b  c #5C5427",
"n  c #584935",
"m  c #5B5335",
"M  c #5D5639",
"N  c #684928",
"B  c #64532C",
"V  c #685925",
"C  c #735E24",
"Z  c #745B2A",
"A  c #765727",
"S  c #634D39",
"D  c #675937",
"F  c #765A36",
"G  c #69612B",
"H  c #7B6325",
"J  c #7A652B",
"K  c #6C623A",
"L  c #746B3B",
"P  c #796538",
"I  c #7A733D",
"U  c #685845",
"Y  c #745D48",
"T  c #776747",
"R  c #7E7344",
"E  c #736050",
"W  c #846C2B",
"Q  c #856827",
"!  c #8A722B",
"~  c #87732B",
"^  c #846A35",
"/  c #886936",
"(  c #8B7432",
")  c #8D733C",
"_  c #897938",
"`  c #937A35",
"'  c #94753B",
"]  c #916E37",
"[  c #926A31",
"{  c #876C43",
"}  c #86754C",
"|  c #897847",
" . c #937C42",
".. c #997C43",
"X. c #94744C",
"o. c #9B7D4B",
"O. c #937748",
"+. c #857952",
"@. c #967E55",
"#. c #806E52",
"$. c #987E58",
"%. c #948135",
"&. c #94823B",
"*. c #9A853C",
"=. c #998F31",
"-. c #A68F3E",
";. c #8A8247",
":. c #998547",
">. c #928254",
",. c #9C8353",
"<. c #9D8C5A",
"1. c #988A57",
"2. c #9C9253",
"3. c #9A9059",
"4. c #9B934E",
"5. c #A38D4B",
"6. c #A58948",
"7. c #AA934A",
"8. c #A79548",
"9. c #B29B4C",
"0. c #A48455",
"q. c #A48D5D",
"w. c #A78B57",
"e. c #A29252",
"r. c #AA9353",
"t. c #AA935B",
"y. c #A79A56",
"u. c #B59C59",
"i. c #AAA45C",
"p. c #B6A354",
"a. c #B8A55B",
"s. c #B5AD56",
"d. c #978763",
"f. c #9C9168",
"g. c #AA9968",
"h. c #B49563",
"j. c #B49B63",
"k. c #B59C6A",
"l. c #A99B74",
"z. c #A48D63",
"x. c #ACA469",
"c. c #B4A26C",
"v. c #B5AB6A",
"b. c #BAAB6C",
"n. c #B9A766",
"m. c #BCB567",
"M. c #B6A977",
"N. c #BBB27C",
"B. c #BEB677",
"V. c #AFA275",
"C. c #C2A95D",
"Z. c #C3B35B",
"A. c #C09D65",
"S. c #C5A96A",
"D. c #C7B669",
"F. c #C3AA77",
"G. c #C4B27C",
"H. c #C3BB7C",
"J. c #C9B678",
"K. c #D3BB75",
"L. c #CCC169",
"P. c #D7C86C",
"I. c #CDC47B",
"U. c #CDC676",
"Y. c #D6C679",
"T. c #DDD477",
"R. c #D5D268",
"E. c #E0CF73",
"W. c #E5D57B",
"Q. c #E4DB7C",
"!. c #E7D976",
"~. c #F3DF7F",
"^. c #ECE77D",
"/. c #F3E375",
"(. c #F5E57C",
"). c #F6EB7A",
"_. c #F9EA7E",
"`. c #F6E67B",
"'. c #BBA887",
"]. c #BCB484",
"[. c #C4B484",
"{. c #C9B787",
"}. c #D6BD89",
"|. c #C9B58F",
" X c #CDC487",
".X c #DCCB85",
"XX c #D7C987",
"oX c #DAD38A",
"OX c #DBD487",
"+X c #D6C895",
"@X c #DDD393",
"#X c #D7D194",
"$X c #CFC490",
"%X c #E1CE89",
"&X c #E4D383",
"*X c #E5DA83",
"=X c #EADC83",
"-X c #E3D48B",
";X c #E5DA8C",
":X c #EBD987",
">X c #F1DD87",
",X c #E1C998",
"<X c #E4DA93",
"1X c #EDDD93",
"2X c #E6DA9A",
"3X c #E6D797",
"4X c #F1DE99",
"5X c #ECE384",
"6X c #EDE48C",
"7X c #EAE78A",
"8X c #F4E483",
"9X c #F4EB84",
"0X c #FAEA84",
"qX c #F3E48C",
"wX c #F4EB8B",
"eX c #FAEB8C",
"rX c #F9E489",
"tX c #FCF38C",
"yX c #F6F288",
"uX c #ECE394",
"iX c #EDEA92",
"pX c #ECE49B",
"aX c #EFED9C",
"sX c #F3E594",
"dX c #F5EB93",
"fX c #FBEC93",
"gX c #F3E49B",
"hX c #F4EB9B",
"jX c #FBEC9C",
"kX c #F8E593",
"lX c #FCF493",
"zX c #FBF39C",
"xX c #F7F398",
"cX c #E7D8A5",
"vX c #F5DDAC",
"bX c #ECE3A3",
"nX c #EAE5A1",
"mX c #FAEDA3",
"MX c #F4EAAB",
"NX c #FCEDAC",
"BX c #F5E6A6",
"VX c #FDF3A4",
"CX c #FCF6A9",
"ZX c #F7E9B5",
"AX c #FBF3B4",
"SX c #F8F5B5",
"DX c #E9E5B7",
"FX c #4E4446",
/* pixels */
"FXFXFXFXFXFXFXFXFXFXFXFXFXFXFXFXFXFXFXFXFXFXFXFXFXFXFXFXFXFXFXFXFXFXFXFXFXFXFXFXFXFXFXFXFXFXFXFXFXFXFXFXFXFXFXFXFXFXFXFXFXFXFXFX",
"FXFXFXFXFXFXFXFXFXFXFXFXFXFXFXFXFXFXFXFXFXFXFXFXFXFXFXFXFXFXFXFXFXFXFXFXFXFXFXFXFXFXFXFXFXFXFXFXFXFXFXFXFXFXFXFXFXFXFXFXFXFXFXFX",
"FXFXFXFXFXFXFXFXFXFXFXFXFXFXFXFXFXFXFXFXFXFXFXFXFXFXFXFXFXFXFXFXFXFXFXFX..Q g FXFXFXFXFXFXFXFXFXFXFXFXFXFXFXFXFXFXFXFXFXFXFXFXFX",
"FXFXFXFXFXFXFXFXFXFXFXFXFXFXFXFXFXFXFXFXFXFXFXFXFXFXFXFXFXFXFXFXFXFXFXFXQ j 6 y ] FXFXFXFXFXFXFXFXFXFXFXFXFXFXFXFXFXFXFXFXFXFXFX",
"FXFXFXFXFXFXFXFXFXFXFXFXFXFXFXFXFXFXFXFXFXFXFXFXFXFXFXFXFXFXFXFXFXFXFXFXQ y : t A FXFXFXFXFXFXFXFXFXFXFXFXFXFXFXFXFXFXFXFXFXFXFX",
"FXFXFXFXFXFXFXFXFXFXFXFXFXFXFXFXFXFXFXFXFXFXFXFXFXFXFXFXFXFXFXFXFXFXFXFX/ A 8 > q X.h.FXFXFXFXFXFXFXFXFXFXFXFXFXFXFXFXFXFXFXFXFX",
"FXFXFXFXFXFXFXFXFXFXFXFXFXFXFXFXFXFXFXFXFXFXFXFXFXFXFXFXFXFXFXFXFXFXFXFX] ] / N v N F FXFXFXFXFXFXFXFXFXFXFXFXFXFXFXFXFXFXFXFXFX",
"FXFXFXFXFXFXFXFXFXFXFXFXFXFXFXFXFXFXFXFXFXFXFXFXFXFXFXFXFXFXFXFXFXFXFXFX' 6.h.k.,.r : FXFXFXFXFXFXFXFXFXFXFXFXFXFXFXFXFXFXFXFXFX",
"FXFXFXFXFXFXFXFXFXFXFXFXFXFXFXFXFXFXFXFXFXFXFXFXFXFXFXFXFXFXFXFXFXFXFXFXo.0.h.}.}.X.r : FXFXFXFXFXFXFXFXFXFXFXFXFXFXFXFXFXFXFXFX",
"FXFXFXFXFXFXFXFXFXFXFXFXFXFXFXFXFXFXFXFXFXFXFXFXFXFXFXFXFXFXFXFXFXFXFXFX/ O.h.,XvX{.{ t 2 FXFXFXFXFXFXFXFXFXFXFXFXFXFXFXFXFXFXFX",
"FXFXy 8 8 N N N N N N N N F { X.X.X.X.o.0.0.w.w.t.w.o.o.0.o.O./ ^ J ^ J d Z k.,XZXvX[.P r 2 FXFXFXFXFXFXFXFXFXFXFXFXFXFXFXFXFXFX",
"FXFXy 8 r F P F F F F P { X.@.,.,.,.0.0.0.,.o.o.,.0.:... .) ) ) / J J k 9 k j.,XZXZXcXF.F 0 k FXFXFXFXFXFXFXFXFXFXFXFXFXFXFXFXFX",
"FXFXy 0 j ,.z.q.<.<.q.g.k.M.M.c.c.c.c.n.u.r.5.5.7.9.u.9.:.*.6.7.8.%.( H k W n.3XNXBXNXBXt.C k l FXFXFXFXFXFXFXFXFXFXFXFXFXFXFXFX",
"FXFXg g ! Y.2X3XoXoX-X2XnXbXpX-X;XuXpXuX*XW.W.W.Q.5X7X5XQ.E.T.Q.Q.T.P.P.L.P.W.qXfXqXsXhX*Xp.l k ! FXFXFXFXFXFXFXFXFXFXFXFXFXFXFX",
"FXFXg h %.1XCXVXmXmXmXmXaXiXiXsXxXzXiXsXfXlXlXtX9X!.R.T.yXyX9XtXtXyXtXtXtXtXeXeXrX0XwXzXzX=X8.~ W ` FXFXFXFXFXFXFXFXFXFXFXFXFXFX",
"FXFXg h %.;XgXoX-X<XoXU.m.i.m.;XiX*Xm.D.Q.wXtX9XL.=.x =.R.^.^.9X9X9X9X9XtXlXeX5X=XdXxXVXVXzX6Xp.H ` 7.FXFXFXFXFXFXFXFXFXFXFXFXFX",
"FXFXH H  .G.g.K L I L m c s L B.I.x.G G e.OXjX;X4.f 3 k D.uXzXhXkXxX6XT.L.D.U.I.I.I.I. X X X.XJ.7.( W 6.FXFXFXFXFXFXFXFXFXFXFXFX",
"FXFX{ { @.l.U + + & & # # # m M.H.3.5 1 V H.MX XT % = m H.BXMXoX XoX Xb.| I | >.>.+.} } } } >.k.F.:.W ' ..FXFXFXFXFXFXFXFXFXFXFX",
"FXFX{ X.z.V.U X   + & 3 s b 1.#XnXN.s & 9 M.DX[.D @ c f.cXMX+X>.G I 1.1.u - , < < , , , , , < D j.K.a.z Q :.FXFXFXFXFXFXFXFXFXFX",
"FXFX| ,.g.V.U O 4 v T ;.y.i.U.uXCXoXL 2 1 l.cXl.v @ T {.ZXMXG.B 1 5 T 1.u % ; + X     X + + X e 5.-X-X6.! Q ` FXFXFXFXFXFXFXFXFX",
"FXFX_ e.g.g.m = D x.3XuX7X9X9X8XlXiXe.d ; d.|.} w , $.cXSXpXv.u X @ T V.R B B e * X + 2 9 9 3 k 8.&XjX&X7.l ( ..FXFXFXFXFXFXFXFX",
"FXFX( e.c.l.m = T  XAXVX9X).).).tXqXD.F ; F >.v q v M.BXmXuXD.v + % #.+X{.{.[.+.s % w } g.g.2.a.Y.:XfXfXT.9.H k ) FXFXFXFXFXFXFX",
"FXFX( e.M.l.S = T +XAXzX^././.).eXqX.XX.2 e v 1 e >.+XNXsX6XU.b % 2 >.cXNXAXZXM.D ; v M.2XBX;X1XfXqX8XfXfX&X&.C J J FXFXFXFXFXFX",
"FXFX^ q.M.'.U = E |.BXsXQ.^.(.8XeXjXbXg.e ; @ + m B.pXVX7X5XU.v + 3 1.2XhXmXBXb.G - v N.2XmXjXfXeX8X~.8XqXqX*Xu.j j A FXFXFXFXFX",
"FXFX^ q.'.'.U @ u { @.>.8.P.8XrXfXmXBX[.T 4 X * R .XhXlX9X5XL.c + 9 2.uXhXjXhXm.G - n G.pXzXfXrX8X9X0X8XrXqXjXY.:.V r j FXFXFXFX",
"FXFX^ q.[.|.E o : > * 2 j Z.rXfXjXmXBX+Xl.u + s 2.uXwXwXyX^.m.e o e y.sXlXlXdXs.V % n {.gXxX8X!.!.0XtX0X8XrXkXsX.X..r r r FXFXFX",
"FXFXW t.[.|.E o o o o * g Z.rXwXkXgXBXcX'.n - D v.dX9X^.yX^.i.5 + c y.wXtXlXdX9.f % n {.hXlX^./._._._._.(.8XeXfXgXK.o.r 7 y FXFX",
"FXFXW t.[.|.E @ ; w v Z %.P.0X8XqXgXNXcXl.u - B v.xX9X^.yXQ.i.w = v x.wXyXyXwX8.a $ n [.gXlX).)._.`./.`.`.8XqXfXVXBXF.r > j FXFX",
"FXFXW r.G.[.T ; B q.{..XW.9X9X5X:XgXAX+XR 4 + e 4.iXdXyXyXT.i.w - v v.dX9X^.5X-.a % n [.uXtX_.)././././._.0X8XqXjXgXF.i > j FXFX",
"FXFX~ r.G.G.Y ; +.$XBXjXqX9X9XwXdXhXMXM.s & + 1 L I.iXxXxXOXy.w = v v.xX9X9X=X*.9 % S |.gXeX)./.`././.`._.0XwXsX&Xj.^ N p FXFXFX",
"FXFX~ e.b.M.D 4 d.cXNXmX6X5XwXzXzXhX@X>.2 1 2 # v i.@XCXCXoX3.4 = n v.xXyXwX:X&.3 $ U +XBXeX/./._.(.(._.(.8XdX*Xa.Z t Z ' FXFXFX",
"FXFX~ e.b.c.D < d.2XMXCXVXzXxXxXVXpXB.K - v K 3 s ;. XSXSX$X+.4 = S v.dXtX0X&X_ 2 o S }.4XeX0X_.8X0X0X0X0XrXT.p.Q H / FXFXFXFXFX",
"FXFXJ e.M.V.D - +.$XcXnXuXOXOX.XpX@X;.s 1 +.x.b 9 b M.ZXSX$XR < = B v.fXwXqX-X_ 2 o n |.4XeX0X0X8XrXrX0XrXW.9.! z ( 6.FXFXFXFXFX",
"FXFXC <.N.M.M @ U l.].N.x.2.:.2.H.B.b 1 9 x.#XI 9 5 f.cXZX[.L , % b n.xX0X5X-X .2 o n |.gXeX0X8XrX>X>XfX&XZ.Q l *.FXFXFXFXFXFXFX",
"FXFXZ <.N.l.M O 4 n m n c w e s L L 5 1 V I.pX2.s - T |.DXN.b % % d a.dXlXqX.XP % o S G.1XrX8X8XrXkXsX&X9.W ~ ` FXFXFXFXFXFXFXFX",
"FXFXG <.M.f.n   . + .     O + & 3 9 & 5 ;.OXaXm.D @ u f.DXM.f % * V s.wXlXdXI.D o : B b.:XeX8XrXkXjX-Xa.! l *.a.FXFXFXFXFXFXFXFX",
"FXFXJ <.V.1.c . . + O + & 1 2 3 3 3 3 G v.uXxXT.R % ; L +Xg.a 2 9 _ L.lXlXqXK.J 9 9 C a.=XlX0XeXmX1Xn.C Q 7.FXFXFXFXFXFXFXFXFXFX",
"FXFXC 1.M.x.+.n m M M K L I | ;.| _ _ i.OXsXwX5X2.5 + e c.n.&._ 4.D.*XfXeXqX&Xa.%.%.9.L.Q.9X0XfX1Xj.] Q ' C.FXFXFXFXFXFXFXFXFXFX",
"FXFXk :.H.#X XN.[.{.{. X#X@X2XbX2X<X@XuXzXwX9X0Xn.B , w ,.K.;X1X4XjXkXqX8XdXzXuX&X&X>XeX!.!.eX>XD.Q l r.FXFXFXFXFXFXFXFXFXFXFXFX",
"FXFXh :.I.MXSXbXBXMXAXAXAXNXNXNXmXmXmXVXzXlXeXqXY.g.>.f.J.1XVXmXmXCXCXVXfXfXzXfXqXfXfXeXqXqXqXD.` ] ' FXFXFXFXFXFXFXFXFXFXFXFXFX",
"FXFXg ( b.<XpX2X3X2X2X3X@X%X%X.X%X%X&X&XW.W.!.T.Y.{.[.J.Y..XOXXXXX.X3X<X&X&X>XqX0XtXeXrXfXsXK.*.l ' u.FXFXFXFXFXFXFXFXFXFXFXFXFX",
"FXFXa l ` y.y.e.y.y.5.' ) ..6.5.7.7.8.8.8.-.-.9.u.h.t.e.6.*.%. .O.O.,.e.:.7.D.!.0X8X9XeXfXY.` Q ] FXFXFXFXFXFXFXFXFXFXFXFXFXFXFX",
"FXFX0 0 j H W W ' ..) / ] ..6.w.7.7.7.9.9.9.9.u.t.q.q.e.6.` W ^ F F Z V r C p.E.8X(.eXfXY.5.^ W FXFXFXFXFXFXFXFXFXFXFXFXFXFXFXFX",
"FXFX8 7 9 a k C ) ....o.w.h.k.S.A.u.C.D.K.K.D.S.j.q.h.j.p.6.( { Y S v t $ r 9.P.8X0XrX&X5.J | o.FXFXFXFXFXFXFXFXFXFXFXFXFXFXFXFX",
"FXFXFXFXFXFXFXFXFXFXFXFXFXFXFXFXFXFXFXFXFXFXFXFXFXFXFXFXFXFXFXFXFXFXFXFXFXP p.T.zXzXP.%.H Z FXFXFXFXFXFXFXFXFXFXFXFXFXFXFXFXFXFX",
"FXFXFXFXFXFXFXFXFXFXFXFXFXFXFXFXFXFXFXFXFXFXFXFXFXFXFXFXFXFXFXFXFXFXFXFXFXFXS.<XCXOX6.h j Z FXFXFXFXFXFXFXFXFXFXFXFXFXFXFXFXFXFX",
"FXFXFXFXFXFXFXFXFXFXFXFXFXFXFXFXFXFXFXFXFXFXFXFXFXFXFXFXFXFXFXFXFXFXFXFXFXFXJ.bXnX:.k g FXFXFXFXFXFXFXFXFXFXFXFXFXFXFXFXFXFXFXFX",
"FXFXFXFXFXFXFXFXFXFXFXFXFXFXFXFXFXFXFXFXFXFXFXFXFXFXFXFXFXFXFXFXFXFXFXFXFXFX}.}.k.j 9 FXFXFXFXFXFXFXFXFXFXFXFXFXFXFXFXFXFXFXFXFX",
"FXFXFXFXFXFXFXFXFXFXFXFXFXFXFXFXFXFXFXFXFXFXFXFXFXFXFXFXFXFXFXFXFXFXFXFXFXFXG.w.Z 8 > FXFXFXFXFXFXFXFXFXFXFXFXFXFXFXFXFXFXFXFXFX",
"FXFXFXFXFXFXFXFXFXFXFXFXFXFXFXFXFXFXFXFXFXFXFXFXFXFXFXFXFXFXFXFXFXFXFXFXFXFXo.N 7 FXFXFXFXFXFXFXFXFXFXFXFXFXFXFXFXFXFXFXFXFXFXFX",
"FXFXFXFXFXFXFXFXFXFXFXFXFXFXFXFXFXFXFXFXFXFXFXFXFXFXFXFXFXFXFXFXFXFXFXFXFXFXr 7 $ FXFXFXFXFXFXFXFXFXFXFXFXFXFXFXFXFXFXFXFXFXFXFX",
"FXFXFXFXFXFXFXFXFXFXFXFXFXFXFXFXFXFXFXFXFXFXFXFXFXFXFXFXFXFXFXFXFXFXFXFXFXFX$ FXFXFXFXFXFXFXFXFXFXFXFXFXFXFXFXFXFXFXFXFXFXFXFXFX",
"FXFXFXFXFXFXFXFXFXFXFXFXFXFXFXFXFXFXFXFXFXFXFXFXFXFXFXFXFXFXFXFXFXFXFXFXFXFXFXFXFXFXFXFXFXFXFXFXFXFXFXFXFXFXFXFXFXFXFXFXFXFXFXFX",
"FXFXFXFXFXFXFXFXFXFXFXFXFXFXFXFXFXFXFXFXFXFXFXFXFXFXFXFXFXFXFXFXFXFXFXFXFXFXFXFXFXFXFXFXFXFXFXFXFXFXFXFXFXFXFXFXFXFXFXFXFXFXFXFX"
};
