/* XPM */
static const char *petit_barbare[] = {
/* columns rows colors chars-per-pixel */
"54 64 244 2 ",
"   c #1A191C",
".  c #32211F",
"X  c #1D1E27",
"o  c #221D24",
"O  c #353638",
"+  c #2A2B31",
"@  c #493734",
"#  c #4E3633",
"$  c #603E3A",
"%  c #654338",
"&  c #3A3745",
"*  c #323247",
"=  c #463A47",
"-  c #583E6E",
";  c #3A494D",
":  c #4A4547",
">  c #574A47",
",  c #5A524F",
"<  c #4A4857",
"1  c #4D545C",
"2  c #575759",
"3  c #564355",
"4  c #694C48",
"5  c #794B46",
"6  c #6A534B",
"7  c #79574B",
"8  c #685958",
"9  c #765857",
"0  c #604B5C",
"q  c #69625A",
"w  c #7B665C",
"e  c #73624D",
"r  c #5B5965",
"t  c #524E6A",
"y  c #655865",
"u  c #75596A",
"i  c #765877",
"p  c #694E71",
"a  c #5E6478",
"s  c #506E6F",
"d  c #686767",
"f  c #786966",
"g  c #79776B",
"h  c #686776",
"j  c #766A79",
"k  c #6E7478",
"l  c #797977",
"z  c #6B726C",
"x  c #5C635A",
"c  c #885755",
"v  c #965B59",
"b  c #8D574C",
"n  c #A55E57",
"m  c #87665C",
"M  c #99655A",
"N  c #926F59",
"B  c #A66957",
"V  c #8D5A68",
"C  c #886C65",
"Z  c #986864",
"A  c #877569",
"S  c #987768",
"D  c #867A77",
"F  c #977B75",
"G  c #9C6478",
"H  c #A66963",
"J  c #A97268",
"K  c #B5776A",
"L  c #A77A73",
"P  c #B47A76",
"I  c #A46E70",
"U  c #C87D6D",
"Y  c #C37D73",
"T  c #C77E77",
"R  c #7E8278",
"E  c #878577",
"W  c #978679",
"Q  c #999379",
"!  c #8F8A70",
"~  c #A6896C",
"^  c #A98779",
"/  c #BD897C",
"(  c #B78679",
")  c #A69475",
"_  c #B38B78",
"`  c #B6B078",
"'  c #CB826E",
"]  c #C6866C",
"[  c #C68474",
"{  c #CA8573",
"}  c #C58B7B",
"|  c #CC8C7B",
" . c #C88778",
".. c #D18B78",
"X. c #D9977B",
"o. c #CC917C",
"O. c #CBB87C",
"+. c #D1B47D",
"@. c #795D88",
"#. c #6B5587",
"$. c #676887",
"%. c #786788",
"&. c #6D7589",
"*. c #787787",
"=. c #6E7599",
"-. c #776D9B",
";. c #7579AA",
":. c #587C81",
">. c #855B93",
",. c #88798C",
"<. c #856A9B",
"1. c #8B7092",
"2. c #B27B88",
"3. c #9978A9",
"4. c #997AB3",
"5. c #8D6BAB",
"6. c #A47EA2",
"7. c #AA7EC2",
"8. c #7B8787",
"9. c #788699",
"0. c #7B979B",
"q. c #7982A7",
"w. c #7B85B3",
"e. c #8B8C84",
"r. c #8D8C8B",
"t. c #858787",
"y. c #968A87",
"u. c #8B918B",
"i. c #94918D",
"p. c #9A9889",
"a. c #888697",
"s. c #938794",
"d. c #8E9596",
"f. c #939593",
"g. c #9D9E9C",
"h. c #989797",
"j. c #AB8686",
"k. c #B98985",
"l. c #A79487",
"z. c #B89688",
"x. c #A69A96",
"c. c #B69B95",
"v. c #9AA094",
"b. c #A6A787",
"n. c #B7A586",
"m. c #BDB685",
"M. c #A9A599",
"N. c #B8A899",
"B. c #B9B499",
"V. c #ABB498",
"C. c #8A87A9",
"Z. c #989CA2",
"A. c #868AB5",
"S. c #9594B8",
"D. c #8F91AA",
"F. c #A68EAF",
"G. c #9DA4A8",
"H. c #95ADB8",
"J. c #ABA5A3",
"K. c #A8A8A8",
"L. c #B4ABA3",
"P. c #B6ABA7",
"I. c #ADB3AB",
"U. c #B9B6A7",
"Y. c #B7ABB8",
"T. c #A9B4B4",
"R. c #B3B4B4",
"E. c #BBB6B3",
"W. c #BBBCBC",
"Q. c #B9B9B8",
"!. c #ABACB4",
"~. c #C88A83",
"^. c #C99587",
"/. c #D29383",
"(. c #DA9C84",
"). c #D99B88",
"_. c #D18A8E",
"`. c #C6A889",
"'. c #D9A68A",
"]. c #CBB688",
"[. c #C6A897",
"{. c #D9AB93",
"}. c #D6A996",
"|. c #C7B898",
" X c #D5B295",
".X c #DBB495",
"XX c #D3B39B",
"oX c #DBB59B",
"OX c #DBB99B",
"+X c #D1B487",
"@X c #C7B7A7",
"#X c #D3B9A4",
"$X c #DBBBA3",
"%X c #D7B9A7",
"&X c #C4BCB9",
"*X c #D9BDB5",
"=X c #BCC1A8",
"-X c #B9C0BB",
";X c #BDC19E",
":X c #C6C699",
">X c #CDC08C",
",X c #C9C7A3",
"<X c #C8C6BA",
"1X c #D4C7B6",
"2X c #D8C0A9",
"3X c #898DC7",
"4X c #9595CD",
"5X c #999ACA",
"6X c #9495D2",
"7X c #979AD2",
"8X c #8A94CA",
"9X c #B4BCC3",
"0X c #A7BBC3",
"qX c #A687C1",
"wX c #C2BDC2",
"eX c #BBC6C8",
"rX c #BED0D4",
"tX c #B6C5CB",
"yX c #C3C3C3",
"uX c #CCCCCC",
"iX c #C8C8C8",
"pX c #D2CDCA",
"aX c #CCD1CF",
"sX c #D3D1CE",
"dX c #D9D4CC",
"fX c #CACDD1",
"gX c #CDD3D3",
"hX c #C6D3D3",
"jX c #D3D4D4",
"kX c #DCD9D6",
"lX c #D4D7D9",
"zX c #D7D9DA",
"xX c #DCDBDB",
"cX c #D7D7D6",
"vX c #E0DEDC",
"bX c #E0D9D5",
"nX c #E4E0DF",
"mX c #DDDFE0",
"MX c #E4E4E3",
"NX c #EBE9E8",
"BX c #F7F7F6",
"VX c #EDEFF0",
"CX c #DFE0E0",
"ZX c #4E4446",
/* pixels */
"ZXZXZXZXZXZXZXZXZXZXZXZXZXZXZXZXZXZXZXZXZXZXZXZXZXR.xXMXxXR.ZXZXZXZXZXZXZXZXZXZXZXZXZXZXZXZXZXZXZXZXZXZXZXZX",
"ZXZXZXZXZXZXZXZXZXZXZXZXZXZXZXZXZXZXZXZXZXZXZXZXZXlXh.g.G.xXR.ZXZXZXR.ZXZXZXZXZXZXZXZXZXZXZXZXZXZXZXZXZXZXZX",
"ZXZXZXZXZXZXZXZXZXZXZXZXZXZXZXZXZXZXZXZXZXZXZXZXZXgXl i.z M.MXjXzXuXyXkXR.ZXZXZXZXZXZXZXZXZXZXZXZXZXZXZXZXZX",
"ZXZXZXZXZXZXZXZXZXZXZXZXZXZXZXZXZXZXZXZXZXW.xXxXxXjX8 ) V.e.r.d.r.h.8.<XiXZXZXZXZXZXZXZXZXZXZXZXZXZXZXZXZXZX",
"ZXZXZXZXZXZXZXZXZXZXZXZXZXZXZXZXZXZXZXZXZXgXr.M.Q.W ) ].].V.l z M.-Xt.kXZXZXZXZXZXZXZXZXZXZXZXZXZXZXZXZXZXZX",
"ZXZXZXZXZXZXZXZXZXZXZXZXZXZXZXZXZXZXZXZXQ.eXA I.d ~ ].O.O.:X! l x.G.J.xXZXZXZXZXZXZXZXZXZXZXZXZXZXZXZXZXZXZX",
"ZXZXZXZXZXZXZXZXZXZXZXZXZXZXZXZXZXZXZXZXZXlXt.f ~ ].O.].>X>XV.E g d M.xXZXZXZXZXZXZXZXZXZXZXZXZXZXZXZXZXZXZX",
"ZXZXZXZXZXZXZXZXZXZXZXZXZXZXZXZXZXZXZXZXZXjXeXm `.].].B.|.,X,XV.! E E iXxXZXZXZXZXZXZXZXZXZXZXZXZXZXZXZXZXZX",
"ZXZXZXZXZXZXZXZXZXZXZXZXZXZXZXZXZXZXZXZXZXjXg.~ |.B.Q g A W B.,X:X,X=Xf.&XxXZXZXZXZXZXZXZXZXZXZXZXZXZXZXZXZX",
"ZXZXZXZXZXZXZXZXZXZXZXZXZXZXZXZXZXZXZXZXZXgXC |.B.g g g.Q.R.v.V.b.b.:X=Xu.Q.vXZXZXZXZXZXZXZXZXZXZXZXZXZXZXZX",
"ZXZXZXZXZXZXZXZXZXZXZXZXZXZXZXZXZXZXZXZXlXp.~ V.E M.<XsXlXlXG.R e.t.Q ,X=Xt.E.vXZXZXZXZXZXZXZXZXZXZXZXZXZXZX",
"ZXZXZXZXZXZXZXZXZXZXZXZXZXZXZXZXZXZXZXyXyXS |.! N.sXjXjXlXrXt.<XaXiXV.:X,X-Xu.J.xXyXZXZXZXZXZXZXZXZXZXZXZXZX",
"ZXZXZXZXZXZXZXZXZXZXZXZXZXZXZXZXZXZXZXxXy.`.].) |.1X1X1XpXeXl U.<X<X<X:X:X:X=Xv.i.jXiXZXZXZXZXZXZXZXZXZXZXZX",
"ZXZXZXZXZXZXZXZXZXZXZXZXZXZXZXZXZXZXxXN.n.].].`.) |.,X:X:X,Xb.! |.,X,X:X:X:X:XU.d.t.cXxXjXZXZXZXQ.uXZXZXZXZX",
"ZXZXZXZXZXZXZXZXZXZXZXZXZXZXZXZXZXjXM.n.+X+X+X].n.) m.m.` :X,X:X,X:XB.B.b.p.E g E v.p.p.W.xXK.jXyXyXjXZXZXZX",
"ZXZXZXZXZXZXZXZXZXZXZXZXZXZXZXZXjXP.) +X+.+.O.O.>X,X:X:X:XU.L.p.W Q E R g M.M.U.U.=X;XU.8.sXMXR.K.xXW.ZXZXZX",
"ZXZXZXZXZXZXZXZXZXZXuXuXjXuXZXiX&X~ +X+.+.+.].].m.B.b.! e.z ! M.N.:X,Xu.Q U.I.E ! g E E l J.i.Q.MXR.ZXZXZXZX",
"ZXZXZXZXZXZXZXW.jXxX!., l pXCXyXA `.+X+Xm.n.Q ! g x ZXN.<XK.! @XB.b.p.z 6 w D ! W l.M.D D t.iXBXQ.ZXZXZXZXZX",
"ZXZXyXjXjXjXzXQ.h.y.8 > , D gXg ~ B.l.! A A ! N.@Xe.W @XL.l ZXw m C F z.N.N.@XL.W F l.l F W.G.W.iXZXZXZXZXZX",
"ZXZXjXz r.i.9 5 Z P / / ( y.k ZXZXZXw L.x.[.|.|.B.E w f w S c.`.[.XXXXXXXX|.L.l M.W.G.1 z h.!.MXyXZXZXZXZXZX",
"ZXZXzXh.d # M } /.o.....| c.d m l.A b.I.*.w F 7 C ~ `.[.[.XX#XXXXXXXXXXXXX|.e.E.gXgXgXT.g.g.d.aXjXZXZXZXZXZX",
"ZXZXR.mX8 M ^./.o.........^ e `.|.! e ZX9 V G v _.).}..X.XoXXXXX X XXXXX#Xx.x.gXgXgXgXgXgXgXT.g.MXZXZXZXZXZX",
"ZXZXZXjXm ~././././.o.o./.^.C n.W 6 Z 2.V j.V b P ~./.{.{.{. X X XXXXX[.U.r.yXgXgXgXgXgXgXgXrX8.kXR.ZXZXZXZX",
"ZXZXiXJ.J k.v v M M H J K L f ZXZXc _.2.5 A @ C Z '.}.{.'.'.'.{. XXX#XF y.M.fXgXgXgXgXgXgXfXhXd.pXiXZXZXZXZX",
"ZXZXlXA / ~.H H H H H J P F 2 ZX4 J _.G 9 8 6 ^ v ] '.).X.'.'.'. XXX@Xw D I.gXgXgXgXgXgXgXgXgXG.E.xXZXZXZXZX",
"ZXZXiXM ~.| o./././.).^.C : ZXZXZX5 ( 9 6 c V ^.^...).).X.X.'.'. XXXU.A r.W.lXgXgXgXgXgXgXgXgXH.K.xXZXZXZXZX",
"ZXyXJ.Z ~. .| /./.~.K m 4 > ^ z.c.c.c.4 6 j.Z }.{.).).X.X.X.(.'.{.XXN.F f.-XlXlXgXgXgX9XJ.uXgX0XG.xXZXZXZXZX",
"ZXjXe.H  .{ } ~.P H K j.w c.J.F S j.D @ J c.J {.}.P ' X.X.X.(.'.{.XX[.W r.W.gXlXlXgXhX9.2 h.R.0XG.vXZXZXZXZX",
"ZXgXf P T Y K n H } ^.S m f > F l.y.ZX7 [.k./ XXF 5 ..X.X.(.(.'.{.XX|.^ i.Q.gXgXlXlXhX&.k k i.0XG.vXZXZXZXZX",
"ZXaX9 P n n K U  . . .} M 5 4 m S D ZXZXF Z ^.N.w 7 [ ).).).'.'.{. XXX[.x.J.gXhXgXjXgXD.l T.I.0XK.kXZXZXZXZX",
"ZXaX6 P Y [ { [ [ { ' { | | } ~.^.F 4 F f ZX7 / XXc.m H /.{.{..X.X.XOXOXU.y.iXgXjXcXjXhXeXhXhXH.u.NXyXZXZXZX",
"yXW.# K T { [ } ( K ' '  . .'  ._.5 n  .j.C 8 5 ^.oX[.C 7 ~ }.oX$XOXOXOX#Xy.J.hXhXgXhXrXrXrXtXs , J.&XxXZXZX",
"xXk . M T U [ L $ % K ' { { { ~.2.5 ] T I K _ 6 b {.oX#Xl.f 6 C ^ n.[.XX%X@Xe.T.hXrXH.8.Z.i.R.C z.U.e.L.jXZX",
"mX2 O 5 P U [ 6 4 F K { ' ] { ~.c J } } M Y } j.4 K oXoX$X#Xc.D > @ A A W c.L.r.d.9.8 ^ l.z.#XXXXX#XU.t.xXZX",
"uXW.r.4 v } } Z m c b U U '  .F b T  .^ n  .[ ~.^ c `.$X$XOX$X<Xd E MXzXyXJ.i.i.y.x.[.%X%X%X#X#X#X#XM.g kXZX",
"ZXiXxXW.4 I ~.} P K [ U ' ' T 5 J { { S B  .'  .~.L S OXOX.X$Xf.8 dXBXBXgXR.aXjXR.l.W l.N.@X@XP.l.f , <XjXZX",
"ZXZXZXuXQ.6 J  .} } { ' ' ' Y K } [ ] ] ]  .] '  .z.S ^.oXOXU.: . g yXW.D l.x.J.xXBXxXg.E l z 2 k E iXjXZXZX",
"ZXZXZXZXuXwX9 v L ( / / / } k./ k./ B n M S K } L C W S OX#Xl   . 4 C 8 c }.*Xs.8 R.P.M.g.<XMXiXjXjXyXZXZXZX",
"ZXZXZXZXZXlXK.> @ 9 A A A f D y.C 9 S j.x.x.F A > : y 6 `.L.O . C z.^.D 7 ~ y.2 F L.w [.&Xy.MXR.ZXZXZXZXZXZX",
"ZXZXZXZXZXZXzXK.r.pXjXzXxXxXVXxXh.x.x.L.E.Q.g.r.k r &.= l.h.  : D ^ W C l.[.N.> _ 1XW _ R.d dXiXZXZXZXZXZXZX",
"ZXZXZXZXZXZXZXuXjXR.g.I.R.xXcXh.M.x.iXxXuXxXzXd r j 5Xq.h r , i.i.D 6 ^ q N 1Xl 7 @Xy 9 d 6 y.sXW.ZXZXZXZXZX",
"ZXZXZXZXZXZXZXZXZXZXjXiXiXR.h.i.J.MXW.ZXZXg.fX2 8 S.4X4XA.q.h nXMXMXF N., N 1Xh $ f O 8 C z.s.J.uXZXZXZXZXZX",
"ZXZXZXZXZXZXZXZXZXlXr.q > y.t.g jXMXjXZXZXZXjXR.t.*.-.S.4X7X$.P.iXyXC 1XJ.m l., m A f q C j.l M.uXZXZXZXZXZX",
"ZXZXZXZXZXZXZXZXcXy.W N.z.W A f D e.M.kXZXZXZXiXxXzX8.< C.4Xw.*.MXmXy.c.@X[.~ _ 2X1Xi.&XJ.A f sXR.ZXjXxXuXZX",
"ZXZXZXZXZXZXZXjXl.z.$X$X%XXX$X%X1X<Xe.dXZXZXZXZXZXW.9X< C.4X8X$.uXxXVXjXJ._ 2X@X@XL.d bXjXjXjXiXZXlXh.*.&XiX",
"ZXZXZXZXZXZXiXE.z.$XOXoXoX$X$X$XN.P.l &XW.ZXZXZXZXeX!.d A.6X7Xw.a.xXxXBXVXl.M.i.E.K.E.jXZXZXZXZXZXiXu 1.s.xX",
"ZXZXZXZXZXZXjXl.%X$X.X.XOX$X$X%XD > : &XW.ZXZXZXZXxXZ.a.4X6X6X4X=.a h J.W.e.D kXgXuX9XZXZXZXZXZXyXK.u 4.%.nX",
"ZXZXZXZXZXZXjXp.c.OX.X.XOX$X$X#Xd , d dXZXZXZXR.xXuXk C.6X6X6X4X4XS.&.l I.8.i.NXg.ZXZXZXZXZXZXZXiXK.u 4.p kX",
"ZXZXZXZXZXZXyXjXN.[.$X%X[.z.XXL.: 2 h.kXZXZXZXlX*.2 *.S.5X4X3XA.=.r q U.8.f.d J.NXCXmXxXQ.ZXZXZXjX9Xi 3.h bX",
"ZXZXZXZXZXZXZXR.vXP.x.D 9 Z XXe.x.xXxXR.ZXZXQ.9X+ & h &.$.a t * X   > f.z k O @ l T.8.r.cXZXZXZXjX!.@.<.s.xX",
"ZXZXZXZXZXZXZXZXR.jXh.z A N.U.D kXQ.ZXZXZXZXuXd.X ZXZXZXZX2 a X + < r j a.9.; + O s :.u.cXZXZXZXMXs.1.<.K.uX",
"ZXZXZXZXZXZXZXZXZXZXjXxXP.p.D E.uXZXZXZXZXZXzXh   ZXZXZXZXh *.C.D.5X5X3XA.q.&.1 s s k iXW.ZXZXzXd.y @.%.pXR.",
"ZXZXZXZXZXZXZXZXZXZXZXZXjXiXiXjXZXZXZXZXW.ZXzX1 ZXZXZX,.S.5X5X7X7X3X;.=.$.S.=.* ; ; d.kXZXZXjXZ.= u <.1.xXZX",
"ZXZXZXZXZXZXZXZXZXZXZXZXZXR.ZXZXZXZXyXuXwXMXgXO ZXZXr S.7X7X6X6X6X3XA.=.h $.& t.8.s uXjXZXyXfX= 2 i %.Y.uXZX",
"ZXZXZXZXZXZXZXZXZXZXZXZXZXZXZXZXZXZXjX,.%.Y.W.O ZXZXZX< A.7X3X6X6X7X3X;.9.< M.hX0.s 8.uXxXgX*.= ,.0 u kXZXZX",
"ZXZXZXZXZXZXZXZXZXZXZXZXZXZXZXZXZXZXuX1.5.*.k : ZXZXZX%.D.8X;.4X7X7X8Xq.r K.T.h 1 1 < : h : j %.1.3 J.jXZXZX",
"ZXZXZXZXZXZXZXZXZXZXZXZXZXZXZXZXZXZXW.1.5.t o > ZXZXd C.A.A.A.w.=.;.&.d.jXVX*.j h $.& = i p 3.@.p e.vXZXZXZX",
"ZXZXZXZXZXZXZXZXZXZXZXZXZXZXZXZXZXZXwX3.5.$.= y 1 ZXd h * * < Z.!.uXzXjXiXlXf >.@.p p i <.>.4.t D xXZXZXZXZX",
"ZXZXZXZXZXZXZXZXZXZXZXZXZXZXZXZXZXZXwX<.- - >.%.a O bXlXO o P.CXiXZXZXZXK.gX0 V 5.>.-.@.3.@.i ,.xXR.ZXZXZXZX",
"ZXZXZXZXZXZXZXZXZXZXZXZXZXZXZXZXZXZXfX3.#.p 5.<.t D MXmX; , kXZXZXZXZXZXiXeXi F.5.3.-.i %.r J.xXR.ZXZXZXZXZX",
"ZXZXZXZXZXZXZXZXZXZXZXZXZXZXZXZXZXZXzXF.4.@.4.@.= iXR.jXf.E.uXZXZXZXZXZXjXh.6.7.>.qX#.= l uXjXZXZXZXZXZXZXZX",
"ZXZXZXZXZXZXZXZXZXZXZXZXZXZXZXZXZXZXuXY.3.%.%.& i.cXZXI.xXiXZXZXZXZXZXZXzXs.F.5.#.@.h J.xXQ.ZXZXZXZXZXZXZXZX",
"ZXZXZXZXZXZXZXZXZXZXZXZXZXZXZXZXZXZXZXxXY.,.1 d kXZXZXZXZXZXZXZXZXZXZXZXuXiXF.C.s.Q.xXuXZXZXZXZXZXZXZXZXZXZX",
"ZXZXZXZXZXZXZXZXZXZXZXZXZXZXZXZXZXZXZXK.jXxXxXxXR.ZXZXZXZXZXZXZXZXZXZXZXZXiXuXuXjXwXZXZXZXZXZXZXZXZXZXZXZXZX"
};
